<svg version="1.1" id="Layer_1" xmlns="http://www.w3.org/2000/svg" xmlns:xlink="http://www.w3.org/1999/xlink" x="0px" y="0px" viewBox="0 0 259 71.9" style="enable-background:new 0 0 259 71.9;" xml:space="preserve">
 <style type="text/css">
  .st0{fill:#002A8D;}
	.st1{fill-rule:evenodd;clip-rule:evenodd;fill:#FFFFFF;}
	.st2{fill-rule:evenodd;clip-rule:evenodd;fill:#FF7800;}
 </style>
 <g>
  <rect class="st0" width="259" height="71.9">
  </rect>
  <path class="st1" d="M64.4,55.7c0,0-0.5,2.5,1.7,2.7c1.1,0,2.2,0,3.5,0c7.8,0,14.9-3,15-10.4c0.1-6.5-5.4-8.5-12-8.5h-4.7
		L64.4,55.7z M99.7,48.3c0,9.8-7.8,22.7-34.8,21.1c-3.2-0.2-5.1-0.5-8-1.2C46.7,65.6,50.3,53,50.3,53L60.7,4.1
		c5.7-1,12.1-1.6,18.6-1.6c14.4,0,24,5.4,24,15.6c0,9.5-8.7,14.7-15.3,15.8C93.2,34.4,99.7,38.6,99.7,48.3z M73.3,13.9l-2.6,12.6
		c0,0-0.6,2.7,1.6,2.7h3c7.8,0,13.3-3.2,13.4-8.9c0.1-4.7-3.7-6.7-9.2-6.7C77,13.5,74.4,13.7,73.3,13.9z M165.7,69.6h-8.6l13.6-65.2
		c5.6-1.4,11.5-1.7,18.4-1.6c16.7,0.1,24.4,6.8,24.4,18.5c0,10.8-8,26.6-31.2,26.6c-2.4,0-4.4-0.3-5.9-0.4c0,0-1.9,9.1-3,14.4
		C172,68.7,167.9,69.6,165.7,69.6z M184.3,14.4l-3.8,18.2c0,0-1.2,3.9,3.1,3.9c0.5,0,1.1,0,1.8,0c9.7-0.1,14.7-6.8,14.7-13.8
		c0-6.9-4.5-8.6-9.8-8.6C187.6,14,185.5,14.2,184.3,14.4z M123.2,40.8c0,10.3,5.6,16.9,15.2,16.9c4,0,8.3-0.7,14.1-5.3l-2.3,11
		c0,0-0.6,3.6-4.4,5c-3.1,1.2-6.3,1.8-11.3,1.8c-13.7,0-27.1-7.2-27.1-28.5c0-19.9,12-40.2,35.2-40.2c4.5,0,7.8,0.7,11.9,2.1
		c6.3,2.2,7.1,5.8,6.7,8c-0.4,2.2-1.9,7.6-1.9,7.6c-4-3.8-10.9-4.9-14.8-4.9C129.7,14.4,123.2,30.2,123.2,40.8z M25.4,32.3
		c-5.2-6-10.6-9.6-14.7-11.7c0,0-2-1-3-1.6c1.5-3.6,3.5-6.1,3.5-6.1c0.3-0.4,6.2-7.8,11.5-5.2C28.4,10.4,29,23,25.4,32.3z
		 M238.1,32.3c-5.2-6-10.6-9.6-14.7-11.7c0,0-2-1-3-1.6c1.5-3.6,3.5-6.1,3.5-6.1c0.3-0.4,6.2-7.8,11.5-5.2
		C241.1,10.4,241.7,23,238.1,32.3z">
  </path>
  <path class="st2" d="M43.1,41.9C37.6,51.3,22.3,62.2,18,63.8c-8.4,3.7-14.1-3.2-14.6-3.9c-1.6-2.1-1.9-2.6-2.7-4.2
		C0.6,56,16.9,47.9,22.7,37.5c6.3-8.9,6.9-26.5,0-29.8c2.1,1.1,7,4.1,11.4,8.3c4.4,4,8.2,9.2,8.2,9.2C42.7,25.8,48.2,33.2,43.1,41.9
		z M254.9,25.2c0.5,0.7,6,8,0.9,16.7c-5.6,9.5-20.8,20.3-25.1,21.9c-8.4,3.7-14.1-3.2-14.6-3.9c-1.6-2.1-1.9-2.6-2.7-4.2
		c-0.1,0.3,16.1-7.8,21.9-18.2c6.3-8.9,6.9-26.5,0-29.8c2.1,1.1,7,4.1,11.4,8.3C251.2,20,255,25.2,254.9,25.2z">
  </path>
 </g>
</svg>